<?xml version="1.0" encoding="UTF-8"?>
<!DOCTYPE svg PUBLIC "-//W3C//DTD SVG 1.1//EN" "http://www.w3.org/Graphics/SVG/1.1/DTD/svg11.dtd">
<!-- Creator: CorelDRAW 2018 (64-Bit) -->
<svg xmlns="http://www.w3.org/2000/svg" xml:space="preserve" width="127.451mm" height="55.4033mm" version="1.1" style="shape-rendering:geometricPrecision; text-rendering:geometricPrecision; image-rendering:optimizeQuality; fill-rule:evenodd; clip-rule:evenodd"
viewBox="0 0 12754.83 5544.56"
 xmlns:xlink="http://www.w3.org/1999/xlink">
 <defs>
  <style type="text/css">
   <![CDATA[
    .fil1 {fill:#2B2A29}
    .fil0 {fill:#2B2A29;fill-rule:nonzero}
    .fil2 {fill:#95232B;fill-rule:nonzero}
    .fil3 {fill:#95232B;fill-rule:nonzero}
   ]]>
  </style>
 </defs>
 <g id="Слой_x0020_1">
  <metadata id="CorelCorpID_0Corel-Layer"/>
  <path class="fil0" d="M323.88 3816.88c36.73,0 65.78,4.8 87.2,14.41 21.42,9.63 32.12,23.17 32.12,40.66 0,5.24 -0.43,9.17 -1.31,11.8 -3.49,12.24 -8.96,20.54 -16.38,24.91 -7.44,4.37 -17.69,6.57 -30.82,6.57 -7.87,0 -21.42,-0.88 -40.64,-2.63 -7,-0.87 -17.47,-1.31 -31.47,-1.31 -65.56,0 -119.1,17.48 -160.62,52.45 -41.52,34.98 -62.28,80.43 -62.28,136.37l0 392.06c0,15.72 -4.38,27.97 -13.12,36.71 -8.74,8.75 -20.99,13.12 -36.72,13.12 -15.72,0 -27.97,-4.37 -36.72,-13.12 -8.73,-8.74 -13.11,-20.99 -13.11,-36.71l0 -617.6c0,-15.73 4.38,-27.96 13.11,-36.71 8.75,-8.75 21,-13.11 36.72,-13.11 15.73,0 27.98,4.36 36.72,13.11 8.74,8.75 13.12,20.98 13.12,36.71l0 57.7c25.35,-36.72 57.68,-65.13 97.03,-85.24 39.33,-20.12 81.72,-30.15 127.18,-30.15z"/>
  <path class="fil0" d="M4339.95 4548.55c-68.2,0 -129.39,-15.96 -183.58,-47.86 -54.19,-31.91 -96.8,-75.62 -127.84,-131.14 -31.03,-55.49 -46.57,-117.35 -46.57,-185.52 0,-69.94 14.86,-132.66 44.58,-188.16 29.73,-55.51 70.82,-99.01 123.25,-130.47 52.46,-31.48 111.46,-47.21 177.01,-47.21 109.27,0 197.99,41.95 266.2,125.88 6.99,7.86 10.48,17.04 10.48,27.54 0,13.98 -7.45,26.21 -22.28,36.71 -7.87,5.24 -16.2,7.86 -24.92,7.86 -13.1,0 -25.78,-6.54 -38.03,-19.66 -26.23,-28.84 -55.07,-50.47 -86.53,-64.9 -31.49,-14.42 -66.45,-21.64 -104.93,-21.64 -48.05,0 -90.91,11.59 -128.51,34.76 -37.57,23.15 -66.65,55.72 -87.17,97.68 -20.55,41.96 -30.82,89.15 -30.82,141.62 0,51.57 10.91,98.11 32.8,139.64 21.83,41.53 52.43,74.09 91.76,97.68 39.33,23.61 84.38,35.41 135.07,35.41 69.9,0 126.33,-18.8 169.15,-56.38 11.37,-9.62 23.16,-14.42 35.41,-14.42 10.49,0 20.1,3.5 28.85,10.49 12.21,10.5 18.35,22.29 18.35,35.41 0,11.36 -4.37,20.98 -13.13,28.85 -62.92,58.56 -142.49,87.85 -238.63,87.85z"/>
  <path class="fil0" d="M1098.17 3818.19c64.69,0 121.95,15.07 171.78,45.23 49.83,30.16 88.5,71.9 116.05,125.23 27.52,53.31 41.29,114.08 41.29,182.26 0,13.98 -4.37,25.14 -13.1,33.43 -8.76,8.32 -20.13,12.47 -34.11,12.47l-529.73 0c6.99,71.68 34.96,129.8 83.91,174.38 48.95,44.58 110.15,66.87 183.57,66.87 31.47,0 63.16,-5.44 95.06,-16.38 31.92,-10.92 57.49,-24.7 76.72,-41.3 11.36,-8.75 23.17,-13.11 35.4,-13.11 9.62,0 19.24,3.49 28.84,10.49 11.38,10.5 17.05,22.29 17.05,35.41 0,11.36 -4.8,21.42 -14.42,30.15 -28.85,24.47 -65.56,44.79 -110.14,60.98 -44.57,16.17 -87.41,24.26 -128.51,24.26 -69.93,0 -132.43,-15.52 -187.5,-46.55 -55.06,-31.03 -98.12,-74.31 -129.15,-129.81 -31.04,-55.51 -46.57,-118.25 -46.57,-188.16 0,-70.82 14.65,-133.97 43.93,-189.49 29.29,-55.49 69.93,-98.77 121.95,-129.8 52,-31.04 111.23,-46.55 177.67,-46.55zm0 90.47c-66.43,0 -121.51,20.55 -165.22,61.64 -43.71,41.08 -70.37,95.27 -79.99,162.59l479.92 0c-7,-67.32 -31.47,-121.51 -73.43,-162.59 -41.96,-41.09 -95.72,-61.64 -161.28,-61.64z"/>
  <path class="fil0" d="M2090.12 3818.19c68.17,0 130.02,15.94 185.54,47.86 55.5,31.9 99.21,75.84 131.11,131.77 31.92,55.95 47.87,118.01 47.87,186.21l0 308.13c0,13.99 -4.81,25.79 -14.41,35.41 -9.63,9.61 -21.87,14.42 -36.73,14.42 -14.85,0 -27.1,-4.59 -36.71,-13.77 -9.63,-9.18 -14.43,-21.21 -14.43,-36.06l0 -78.67c-30.58,41.95 -69.49,74.95 -116.7,98.99 -47.21,24.04 -99.21,36.07 -156.04,36.07 -66.43,0 -126.54,-15.96 -180.29,-47.86 -53.77,-31.91 -96.17,-75.62 -127.2,-131.14 -31.03,-55.49 -46.56,-117.35 -46.56,-185.52 0,-68.2 15.96,-130.26 47.87,-186.21 31.91,-55.93 75.62,-99.87 131.12,-131.77 55.51,-31.91 117.36,-47.86 185.55,-47.86zm0 638.57c49.82,0 94.85,-11.8 135.06,-35.41 40.2,-23.6 71.89,-56.15 95.06,-97.68 23.17,-41.52 34.74,-88.07 34.74,-139.64 0,-51.59 -11.57,-98.14 -34.74,-139.66 -23.17,-41.52 -54.86,-74.31 -95.06,-98.33 -40.21,-24.06 -85.25,-36.07 -135.06,-36.07 -49.83,0 -95.06,12.01 -135.72,36.07 -40.65,24.03 -72.56,56.81 -95.72,98.33 -23.15,41.51 -34.74,88.07 -34.74,139.66 0,51.57 11.59,98.11 34.74,139.64 23.17,41.53 55.07,74.09 95.72,97.68 40.66,23.61 85.9,35.41 135.72,35.41z"/>
  <path class="fil0" d="M2998.16 4541.99c-53.33,0 -96.81,-21.2 -130.48,-63.6 -33.65,-42.39 -50.48,-96.81 -50.48,-163.24l0 -747.41c0,-14.87 4.8,-26.88 14.43,-36.07 9.61,-9.17 21.42,-13.76 35.4,-13.76 14.87,0 26.88,4.59 36.07,13.76 9.17,9.19 13.76,21.2 13.76,36.07l0 747.41c0,37.59 7.66,68.18 22.94,91.79 15.31,23.6 34.77,35.39 58.36,35.39l32.77 0c13.12,0 23.6,4.61 31.47,13.78 7.86,9.17 11.79,21.2 11.79,36.06 0,14.85 -5.46,26.88 -16.38,36.06 -10.92,9.18 -25.14,13.77 -42.61,13.77l-17.04 0z"/>
  <path class="fil0" d="M5320.09 4548.55c-69.06,0 -131.34,-15.74 -186.87,-47.21 -55.46,-31.45 -98.96,-74.96 -130.45,-130.48 -31.45,-55.49 -47.21,-117.79 -47.21,-186.83 0,-69.07 15.75,-131.57 47.21,-187.52 31.49,-55.93 74.99,-99.65 130.45,-131.11 55.53,-31.48 117.81,-47.21 186.87,-47.21 69.05,0 131.15,15.72 186.19,47.21 55.07,31.46 98.58,75.18 130.49,131.11 31.91,55.95 47.84,118.45 47.84,187.52 0,69.04 -15.71,131.34 -47.21,186.83 -31.45,55.52 -74.95,99.03 -130.45,130.48 -55.53,31.46 -117.81,47.21 -186.86,47.21zm0 -91.79c50.69,0 96.16,-11.8 136.37,-35.41 40.22,-23.6 71.67,-56.15 94.41,-97.68 22.74,-41.52 34.11,-88.07 34.11,-139.64 0,-52.47 -11.37,-99.46 -34.11,-140.98 -22.74,-41.51 -54.19,-74.07 -94.41,-97.68 -40.21,-23.59 -85.69,-35.4 -136.37,-35.4 -49.82,0 -95.08,11.81 -135.71,35.4 -40.64,23.62 -72.56,56.17 -95.71,97.68 -23.16,41.52 -34.74,88.51 -34.74,140.98 0,51.57 11.58,98.11 34.74,139.64 23.16,41.53 55.07,74.09 95.71,97.68 40.63,23.61 85.9,35.41 135.71,35.41z"/>
  <path class="fil0" d="M6413.01 3816.88c62.07,0 117.78,13.11 167.17,39.32 49.39,26.23 88.09,64.47 116.05,114.74 27.99,50.27 41.97,110.37 41.97,180.31l0 340.92c0,13.99 -4.79,25.79 -14.43,35.41 -9.61,9.61 -21.4,14.42 -35.42,14.42 -14.86,0 -27.08,-4.81 -36.72,-14.42 -9.6,-9.62 -14.4,-21.42 -14.4,-35.41l0 -340.92c0,-77.8 -21.65,-137.02 -64.89,-177.69 -43.28,-40.64 -99.88,-60.97 -169.82,-60.97 -42.82,0 -81.51,8.31 -116.05,24.92 -34.53,16.6 -61.85,39.55 -81.94,68.84 -20.12,29.28 -30.18,61.84 -30.18,97.68l0 388.13c0,14.85 -4.58,26.88 -13.77,36.06 -9.18,9.18 -21.18,13.77 -36.04,13.77 -14.87,0 -27.12,-4.59 -36.72,-13.77 -9.61,-9.18 -14.41,-21.21 -14.41,-36.06l0 -616.28c0,-14.85 4.8,-27.1 14.41,-36.72 9.6,-9.62 21.85,-14.42 36.72,-14.42 14.86,0 26.86,4.8 36.04,14.42 9.19,9.62 13.77,21.87 13.77,36.72l0 44.58c28.88,-32.34 63.83,-57.7 104.89,-76.06 41.1,-18.35 85.69,-27.53 133.77,-27.53z"/>
  <path class="fil0" d="M7403.66 4548.55c-54.22,0 -106.23,-9.18 -156.04,-27.53 -49.82,-18.36 -90.03,-44.15 -120.64,-77.37 -8.76,-10.49 -13.13,-20.55 -13.13,-30.15 0,-14.87 7.03,-27.98 21.01,-39.34 10.49,-7.87 21.4,-11.8 32.76,-11.8 14.86,0 27.53,6.1 38.02,18.35 21.01,24.48 48.76,43.27 83.28,56.37 34.53,13.12 72.77,19.68 114.74,19.68 61.19,0 107.08,-10.49 137.65,-31.46 30.61,-20.99 46.36,-48.52 47.24,-82.62 0,-31.45 -15.32,-57.68 -45.9,-78.66 -30.6,-20.98 -79.11,-36.73 -145.56,-47.21 -85.69,-14 -149.68,-38.24 -192.09,-72.78 -42.4,-34.54 -63.62,-76.28 -63.62,-125.24 0,-63.8 24.71,-113.2 74.1,-148.15 49.4,-34.98 111.24,-52.45 185.53,-52.45 57.72,0 107.96,9.82 150.78,29.5 42.86,19.66 77.39,46.99 103.59,81.94 7.03,11.37 10.52,21.42 10.52,30.16 0,14.86 -7,26.67 -21.01,35.4 -6.11,4.37 -14.41,6.57 -24.89,6.57 -18.36,0 -33.69,-6.57 -45.9,-19.66 -42.83,-48.96 -101.4,-73.44 -175.71,-73.44 -48.09,0 -86.54,9.84 -115.38,29.5 -28.88,19.68 -43.28,44.36 -43.28,74.09 0,31.46 13.56,56.61 40.63,75.39 27.12,18.8 75.21,33.89 144.26,45.25 93.52,15.73 160.39,41.3 200.6,76.7 40.21,35.41 60.34,79.33 60.34,131.77 0,40.22 -12.04,76.06 -36.05,107.53 -24.05,31.47 -57.47,55.95 -100.34,73.44 -42.82,17.48 -91.33,26.22 -145.53,26.22z"/>
  <path class="fil0" d="M8652.6 3824.75c14.86,0 27.11,4.57 36.72,13.78 9.64,9.17 14.4,21.18 14.4,36.04l0 616.29c0,14.86 -4.76,27.1 -14.4,36.72 -9.61,9.61 -21.86,14.42 -36.72,14.42 -14.86,0 -26.87,-4.81 -36.05,-14.42 -9.18,-9.62 -13.77,-21.86 -13.77,-36.72l0 -44.58c-28.84,32.34 -63.83,57.69 -104.89,76.06 -41.09,18.35 -85.69,27.53 -133.76,27.53 -62.07,0 -117.78,-13.12 -167.17,-39.35 -49.4,-26.21 -88.09,-64.46 -116.05,-114.73 -28,-50.27 -41.98,-110.35 -41.98,-180.29l0 -340.93c0,-13.98 4.8,-25.78 14.44,-35.4 9.61,-9.62 21.4,-14.42 35.42,-14.42 14.82,0 27.07,4.8 36.71,14.42 9.61,9.62 14.41,21.42 14.41,35.4l0 340.93c0,77.8 21.64,137.02 64.89,177.67 43.28,40.66 99.88,60.98 169.81,60.98 42.83,0 81.52,-8.31 116.05,-24.91 34.53,-16.62 61.86,-39.57 81.98,-68.84 20.09,-29.28 30.14,-61.86 30.14,-97.68l0 -388.14c0,-14.86 4.59,-26.87 13.77,-36.04 9.18,-9.21 21.19,-13.78 36.05,-13.78z"/>
  <path class="fil0" d="M9286.56 4541.99c-53.31,0 -96.8,-21.2 -130.45,-63.6 -33.65,-42.39 -50.48,-96.81 -50.48,-163.24l0 -747.41c0,-14.87 4.79,-26.88 14.43,-36.07 9.61,-9.17 21.4,-13.76 35.38,-13.76 14.86,0 26.9,4.59 36.09,13.76 9.18,9.19 13.76,21.2 13.76,36.07l0 747.41c0,37.59 7.67,68.18 22.96,91.79 15.28,23.6 34.74,35.39 58.31,35.39l32.81 0c13.1,0 23.62,4.61 31.45,13.78 7.88,9.17 11.83,21.2 11.83,36.06 0,14.85 -5.47,26.88 -16.38,36.06 -10.95,9.18 -25.14,13.77 -42.65,13.77l-17.05 0z"/>
  <path class="fil0" d="M10009.74 4441.02c13.98,0 25.35,4.81 34.08,14.43 8.76,9.61 13.13,21.86 13.13,36.72 0,13.99 -5.26,25.79 -15.74,35.41 -10.49,9.61 -23.62,14.42 -39.33,14.42l-27.54 0c-46.32,0 -87.84,-11.16 -124.59,-33.44 -36.69,-22.31 -65.32,-52.45 -85.87,-90.49 -20.55,-38.01 -30.82,-81.06 -30.82,-129.15l0 -350.1 -85.22 0c-13.98,0 -25.14,-4.15 -33.44,-12.47 -8.33,-8.3 -12.46,-18.56 -12.46,-30.8 0,-13.12 4.13,-23.82 12.46,-32.12 8.3,-8.32 19.45,-12.47 33.44,-12.47l85.22 0 0 -203.23c0,-14.85 4.59,-27.09 13.77,-36.71 9.18,-9.62 21.22,-14.43 36.05,-14.43 14.86,0 27.11,4.81 36.72,14.43 9.6,9.62 14.44,21.86 14.44,36.71l0 203.23 148.17 0c13.98,0 25.14,4.15 33.44,12.47 8.3,8.31 12.46,19 12.46,32.12 0,12.24 -4.16,22.51 -12.46,30.8 -8.3,8.32 -19.45,12.47 -33.44,12.47l-148.17 0 0 350.1c0,44.58 13.09,81.07 39.33,109.49 26.23,28.41 59.88,42.6 100.97,42.6l35.41 0z"/>
  <path class="fil0" d="M10485.06 4541.99c-14.83,0 -27.08,-4.81 -36.72,-14.42 -9.61,-9.62 -14.4,-21.86 -14.4,-36.72l0 -614.97c0,-14.85 4.79,-27.1 14.4,-36.72 9.64,-9.62 21.89,-14.42 36.72,-14.42 14.86,0 26.9,4.8 36.08,14.42 9.19,9.62 13.77,21.87 13.77,36.72l0 614.97c0,14.86 -4.58,27.1 -13.77,36.72 -9.18,9.61 -21.22,14.42 -36.08,14.42zm-1.31 -853.63c-20.09,0 -36.93,-6.98 -50.48,-20.98 -13.52,-13.98 -20.34,-31.02 -20.34,-51.14 0,-20.97 7.03,-38.02 21.01,-51.13 13.98,-13.12 31.03,-19.66 51.12,-19.66 19.24,0 35.87,6.54 49.85,19.66 13.98,13.11 20.98,30.16 20.98,51.13 0,20.12 -7,37.16 -20.98,51.14 -13.98,14 -31.06,20.98 -51.16,20.98z"/>
  <path class="fil0" d="M11323.62 3816.88c62.07,0 117.77,13.11 167.17,39.32 49.39,26.23 88.09,64.47 116.05,114.74 27.96,50.27 41.94,110.37 41.94,180.31l0 340.92c0,13.99 -4.77,25.79 -14.41,35.41 -9.6,9.61 -21.4,14.42 -35.41,14.42 -14.86,0 -27.08,-4.81 -36.72,-14.42 -9.61,-9.62 -14.4,-21.42 -14.4,-35.41l0 -340.92c0,-77.8 -21.65,-137.02 -64.93,-177.69 -43.25,-40.64 -99.88,-60.97 -169.78,-60.97 -42.86,0 -81.52,8.31 -116.05,24.92 -34.57,16.6 -61.86,39.55 -81.97,68.84 -20.1,29.28 -30.15,61.84 -30.15,97.68l0 388.13c0,14.85 -4.59,26.88 -13.77,36.06 -9.18,9.18 -21.19,13.77 -36.05,13.77 -14.86,0 -27.11,-4.59 -36.72,-13.77 -9.6,-9.18 -14.44,-21.21 -14.44,-36.06l0 -616.28c0,-14.85 4.84,-27.1 14.44,-36.72 9.61,-9.62 21.86,-14.42 36.72,-14.42 14.86,0 26.87,4.8 36.05,14.42 9.18,9.62 13.77,21.87 13.77,36.72l0 44.58c28.84,-32.34 63.83,-57.7 104.92,-76.06 41.06,-18.35 85.66,-27.53 133.74,-27.53z"/>
  <path class="fil0" d="M12390.31 3818.19c69.9,0 132.43,15.5 187.5,46.55 55.07,31.03 98.32,74.31 129.78,129.8 31.49,55.52 47.24,118.67 47.24,189.49l0 267.48c0,69.93 -15.53,133.31 -46.57,190.14 -31.03,56.82 -74.07,101.61 -129.14,134.4 -55.08,32.76 -117.15,49.17 -186.2,49.17 -67.32,0 -127.21,-12.68 -179.63,-38.04 -52.47,-25.34 -96.59,-60.74 -132.47,-106.19 -7.87,-8.76 -11.79,-18.79 -11.79,-30.17 0,-13.1 6.1,-24.48 18.36,-34.09 8.76,-6.11 18.35,-9.17 28.84,-9.17 7.88,0 15.74,1.96 23.62,5.89 7.84,3.93 13.98,8.96 18.35,15.07 26.2,33.23 59.43,59.02 99.64,77.37 40.21,18.35 85.69,27.54 136.38,27.54 48.97,0 93.3,-12.02 133.09,-36.08 39.76,-24.04 71.03,-57.68 93.74,-100.97 22.73,-43.25 34.1,-92.86 34.1,-148.81l0 -59.02c-26.23,49.84 -63.37,88.96 -111.46,117.36 -48.09,28.41 -102.7,42.62 -163.92,42.62 -68.17,0 -129.15,-15.52 -182.92,-46.55 -53.77,-31.03 -95.71,-74.31 -125.86,-129.81 -30.15,-55.51 -45.22,-118.25 -45.22,-188.16 0,-70.82 15.71,-133.97 47.17,-189.49 31.49,-55.49 74.99,-98.77 130.48,-129.8 55.5,-31.04 117.82,-46.55 186.87,-46.55zm0 638.57c50.7,0 96.13,-11.58 136.34,-34.75 40.21,-23.17 71.7,-55.5 94.41,-97.02 22.73,-41.53 34.1,-88.52 34.1,-140.96 0,-52.47 -11.37,-99.46 -34.1,-140.98 -22.71,-41.51 -54.2,-74.07 -94.41,-97.68 -40.21,-23.59 -85.65,-35.4 -136.34,-35.4 -51.58,0 -97.47,11.81 -137.69,35.4 -40.22,23.62 -71.7,56.17 -94.41,97.68 -22.74,41.52 -34.1,88.51 -34.1,140.98 0,52.44 11.36,99.43 34.1,140.96 22.71,41.52 54.19,73.86 94.41,97.02 40.21,23.17 86.11,34.75 137.69,34.75z"/>
  <path class="fil1" d="M6349.11 0c666.9,0 1222.84,474.42 1349.13,1104.12 16.63,17.79 31.1,36.79 43.46,56.94 16.98,27.68 29.48,59.35 37.49,95.04 -20.51,0.92 -42.36,1.34 -65.59,1.34 -23.2,0 -45.05,-0.42 -65.6,-1.34 -5.36,-8.02 -10.03,-16.06 -14.05,-24.08 -4.02,-8.05 -8.72,-15.64 -14.05,-22.77 -16.98,-22.32 -38.16,-41.06 -63.62,-56.24 -25.42,-15.18 -55.57,-24.08 -90.35,-26.76 -8.93,-0.88 -17.86,-0.88 -26.79,0 -55.32,4.44 -101.29,25.21 -137.91,62.28 -36.57,37 -57.08,83.63 -61.57,139.88 -1.76,33.93 4.23,64.5 18.07,91.72 13.84,27.22 29.69,49.75 47.53,67.61 16.97,16.94 37.74,31.2 62.28,42.82 24.53,11.62 52.42,17.86 83.66,18.74 25,0 48.41,-4.23 70.26,-12.71 21.89,-8.47 40.84,-18.95 56.9,-31.49 16.98,-12.46 31.03,-26.76 42.19,-42.82 11.16,-16.06 21.19,-33.89 30.11,-53.55 20.52,-1.77 42.4,-2.69 65.6,-2.69 23.2,0 45.08,0.92 65.6,2.69 -8.94,40.17 -21.86,74.07 -38.8,101.75 -8.48,13.84 -18.08,27.07 -28.78,39.78 -85.58,677.87 -664.12,1202.12 -1365.19,1202.12 -760.04,0 -1376.18,-616.14 -1376.18,-1376.2 0,-760.04 616.14,-1376.18 1376.18,-1376.18zm817.09 1153.69c-97.69,-359.68 -426.45,-624.23 -817.09,-624.23 -467.62,0 -846.72,379.07 -846.72,846.72 0,467.65 379.1,846.73 846.72,846.73 410.98,0 753.57,-292.79 830.54,-681.18 -3.25,-4.27 -6.42,-8.66 -9.61,-13.17 -13.38,-19.17 -24.75,-40.6 -34.14,-64.26 -9.36,-23.65 -16.06,-49.32 -20.1,-76.96 -4.02,-27.68 -4.23,-57.58 -0.67,-89.71 4.48,-42.86 15.4,-80.57 32.81,-113.16 5.78,-10.77 11.86,-21.04 18.25,-30.78z"/>
  <path class="fil2" d="M6706.81 1275.7c-20.51,1.76 -41.69,2.43 -63.58,2.01 -21.86,-0.46 -43.5,-0.67 -64.93,-0.67 -16.06,-43.74 -39.51,-79.44 -70.29,-107.11 -30.78,-27.68 -72.52,-43.28 -125.19,-46.86 -25.88,-1.8 -51.51,2.01 -76.97,11.37 -25.42,9.36 -47.06,21.65 -64.92,36.83 -21.44,18.74 -38.38,40.6 -50.88,65.59 -12.5,24.97 -20.97,54.9 -25.42,89.71 -2.72,26.77 -3.35,54.65 -2.01,83.67 1.31,28.99 2.01,57.79 2.01,86.36l0 171.37c-19.66,1.76 -40.18,2.43 -61.61,1.98 -21.43,-0.43 -42.4,-0.67 -62.91,-0.67l0 -286.5c0,-16.06 -0.46,-32.13 -1.34,-48.2 -0.92,-16.06 -0.46,-31.24 1.34,-45.5 1.76,-23.2 7.13,-45.75 16.06,-67.61 8.9,-21.85 18.28,-41.27 28.1,-58.25 20.52,-35.69 46.64,-66.47 78.34,-92.35 31.66,-25.92 68.91,-45.97 111.78,-60.27 16.94,-5.36 37.95,-9.36 62.91,-12.04 25,-2.68 50.42,-3.14 76.34,-1.34 40.14,4.44 76.96,15.18 110.42,32.12 33.48,16.94 61.83,37.04 85.01,60.27 25,24.08 45.75,51.3 62.25,81.66 16.52,30.36 28.35,65.14 35.48,104.43z"/>
  <path class="fil3" d="M5297.38 5333.8c-10.27,0.44 -21.22,0.66 -32.84,0.66 -11.61,0 -22.56,-0.22 -32.83,-0.66 -2.69,-4.02 -5.01,-8.06 -7.03,-12.07 -2.02,-4.02 -4.38,-7.82 -7.03,-11.39 -8.52,-11.18 -19.14,-20.56 -31.85,-28.16 -12.74,-7.59 -27.81,-12.07 -45.25,-13.4 -4.48,-0.44 -8.94,-0.44 -13.42,0 -27.67,2.23 -50.7,12.63 -69.02,31.16 -18.31,18.53 -28.59,41.88 -30.81,70.04 -0.92,16.98 2.11,32.28 9.04,45.92 6.92,13.62 14.86,24.9 23.8,33.84 8.47,8.5 18.88,15.65 31.17,21.45 12.28,5.8 26.23,8.94 41.87,9.4 12.53,0 24.25,-2.13 35.2,-6.37 10.94,-4.24 20.44,-9.49 28.49,-15.75 8.47,-6.25 15.53,-13.4 21.11,-21.46 5.58,-8.03 10.63,-16.96 15.08,-26.81 10.27,-0.88 21.22,-1.32 32.83,-1.32 11.62,0 22.57,0.44 32.84,1.32 -4.44,20.13 -10.91,37.1 -19.41,50.95 -8.51,13.86 -19.24,26.59 -32.16,38.21 -15.21,13.39 -33.08,24.58 -53.62,33.52 -20.56,8.94 -46.05,12.27 -76.41,10.05 -21.01,-1.35 -40.24,-6.59 -57.64,-15.76 -17.44,-9.16 -32.62,-19.76 -45.58,-31.82 -7.59,-7.15 -14.75,-15.53 -21.43,-25.13 -6.71,-9.61 -12.43,-20.35 -17.09,-32.17 -4.72,-11.85 -8.08,-24.69 -10.1,-38.55 -2.01,-13.84 -2.11,-28.82 -0.31,-44.89 2.22,-21.45 7.7,-40.33 16.41,-56.63 8.72,-16.31 18.88,-30.28 30.5,-41.89 10.74,-11.19 22.7,-20.57 35.87,-28.15 13.17,-7.6 28.49,-13.64 45.9,-18.09 7.6,-1.79 16.98,-3.12 28.18,-4.02 11.15,-0.9 21.89,-0.9 32.15,0 19.21,1.78 36.62,6.69 52.26,14.74 15.63,8.04 29.3,17.19 40.91,27.47 12.5,11.63 23.02,24.36 31.49,38.2 8.48,13.86 14.76,29.73 18.74,47.61z"/>
  <path class="fil3" d="M5819.79 5053.63l60.34 0 0 163.53c0,28.15 -0.46,56.18 -1.34,84.11 -0.89,27.92 -0.43,54.18 1.34,78.76 2.22,31.27 12.95,55.96 32.16,74.06 19.2,18.09 44.69,28.25 76.4,30.49l0 59.66c-25.46,1.34 -47.67,-1.79 -66.66,-9.39 -18.99,-7.61 -35.2,-17.86 -48.62,-30.82 -12.95,-11.62 -24.78,-26.25 -35.51,-43.9 -10.74,-17.66 -16.98,-37.2 -18.75,-58.64 -1.37,-13.85 -1.69,-28.04 -1.02,-42.56 0.67,-14.52 1.02,-29.15 1.02,-43.91l0 -258.7c0,-1.79 0.21,-2.68 0.64,-2.68z"/>
  <path class="fil3" d="M6509.21 5206.45l61.65 0c1.34,29.49 1.13,58.29 -0.67,86.46 -1.77,28.15 -1.56,56.52 0.67,85.12 2.25,28.14 12.64,51.49 31.17,70.02 18.53,18.55 41.87,28.71 70.04,30.51l7.38 0c13.38,-0.45 25.92,-3.24 37.53,-8.38 11.62,-5.14 22,-12.07 31.17,-20.79 9.15,-8.72 16.52,-18.98 22.11,-30.82 5.57,-11.86 9.04,-24.92 10.38,-39.22 1.34,-14.3 1.69,-28.71 1.02,-43.23 -0.67,-14.51 -1.02,-28.92 -1.02,-43.22l0 -86.46 62.35 0 0 334.45 -62.35 0c-0.43,-5.8 -0.43,-11.73 0,-17.76 0.46,-6.02 0.24,-11.5 -0.64,-16.42 -7.63,4.92 -15.67,9.73 -24.15,14.41 -8.47,4.69 -17.75,8.72 -27.82,12.07 -10.06,3.35 -20.9,5.8 -32.51,7.38 -11.61,1.56 -24.57,1.67 -38.87,0.33 -20.55,-2.23 -39.08,-7.71 -55.64,-16.42 -16.52,-8.71 -31.02,-19.32 -43.52,-31.84 -12.08,-12.05 -22.71,-26.46 -31.84,-43.22 -9.19,-16.75 -14.87,-35.19 -17.09,-55.3 -0.88,-7.6 -1.13,-15.4 -0.67,-23.46 0.46,-8.04 0.67,-15.85 0.67,-23.46l0 -138.74c0,-1.33 0.21,-2 0.67,-2z"/>
  <path class="fil3" d="M7364.86 5048.93l60.31 0 0 193.71c2.68,0.9 5.47,0.22 8.37,-2.01 2.93,-2.23 6.17,-4.46 9.75,-6.71 12.95,-8.04 28.03,-14.52 45.22,-19.44 17.19,-4.9 37.63,-6.24 61.32,-4.01 21.9,1.78 42.26,7.94 61.01,18.42 18.75,10.52 34.85,24.14 48.27,40.89 13.38,16.76 23.44,36.19 30.15,58.31 6.71,22.12 8.93,45.46 6.71,70.04 -1.8,18.76 -6.82,36.53 -15.07,53.27 -8.27,16.77 -19.1,31.73 -32.52,44.91 -13.41,13.19 -28.8,23.91 -46.25,32.17 -17.4,8.27 -35.77,13.3 -54.97,15.08 -30.36,2.68 -56.83,-1 -79.4,-11.07 -22.56,-10.05 -41.23,-22.67 -55.95,-37.87 -12.54,-12.05 -23.27,-26.7 -32.19,-43.89 -8.94,-17.21 -14.51,-36.75 -16.74,-58.65 -0.88,-14.3 -1.13,-28.47 -0.67,-42.55 0.43,-14.07 0.67,-28.26 0.67,-42.55l0 -254.7c0,-1.33 0.67,-2.45 2.01,-3.35zm75.06 274.14c-1.34,2.67 -2.89,6.02 -4.69,10.06 -1.8,4.01 -3.45,8.48 -5.01,13.4 -1.58,4.91 -2.78,9.93 -3.7,15.07 -0.88,5.14 -1.34,9.95 -1.34,14.41 0,19.65 4.37,36.65 13.06,50.95 8.73,14.3 18.89,25.69 30.5,34.18 7.17,4.92 16.31,9.5 27.47,13.73 11.19,4.26 22.81,6.38 34.88,6.38 13.84,0 27.26,-2.8 40.21,-8.39 12.96,-5.58 24.26,-13.4 33.86,-23.46 9.61,-10.05 17.05,-21.89 22.43,-35.52 5.36,-13.63 7.38,-28.72 6.06,-45.25 -0.91,-9.37 -3.35,-19.42 -7.38,-30.16 -4.06,-10.71 -8.51,-19.2 -13.41,-25.47 -9.4,-12.51 -22.25,-22.78 -38.56,-30.82 -16.31,-8.04 -34.74,-10.95 -55.28,-8.72 -17.44,2.24 -33.05,7.83 -46.93,16.76 -13.84,8.94 -24.57,19.89 -32.16,32.85z"/>
 </g>
</svg>
